<svg xmlns="http://www.w3.org/2000/svg" width="1280" height="320" viewBox="0 0 1280 320">
  <defs>
    <linearGradient id="bg" x1="0%" y1="0%" x2="100%" y2="100%">
      <stop offset="0%" stop-color="#0d1117"/>
      <stop offset="100%" stop-color="#161b22"/>
    </linearGradient>
    <linearGradient id="line" x1="0%" y1="0%" x2="100%" y2="0%">
      <stop offset="0%" stop-color="#58a6ff"/>
      <stop offset="100%" stop-color="#1f6feb"/>
    </linearGradient>
  </defs>

  <rect width="1280" height="320" fill="url(#bg)"/>

  <g opacity="0.06" stroke="#ffffff">
    <path d="M0 40H1280"/><path d="M0 80H1280"/><path d="M0 120H1280"/>
    <path d="M0 160H1280"/><path d="M0 200H1280"/><path d="M0 240H1280"/><path d="M0 280H1280"/>
    <path d="M160 0V320"/><path d="M320 0V320"/><path d="M480 0V320"/>
    <path d="M640 0V320"/><path d="M800 0V320"/><path d="M960 0V320"/>
    <path d="M1120 0V320"/>
  </g>

  <line x1="110" y1="65" x2="1170" y2="65" stroke="url(#line)" stroke-width="3"/>
  <line x1="110" y1="255" x2="1170" y2="255" stroke="url(#line)" stroke-width="3"/>

  <g stroke="#58a6ff" stroke-width="2" fill="none" opacity="0.55">
    <circle cx="90" cy="160" r="8"/>
    <circle cx="125" cy="130" r="4"/>
    <circle cx="125" cy="190" r="4"/>
    <line x1="98" y1="160" x2="121" y2="133"/>
    <line x1="98" y1="160" x2="121" y2="187"/>

    <circle cx="1190" cy="160" r="8"/>
    <circle cx="1155" cy="130" r="4"/>
    <circle cx="1155" cy="190" r="4"/>
    <line x1="1182" y1="160" x2="1159" y2="133"/>
    <line x1="1182" y1="160" x2="1159" y2="187"/>
  </g>

  <text x="640" y="128" text-anchor="middle"
        font-family="Segoe UI, Ubuntu, Arial, sans-serif"
        font-size="42" font-weight="700"
        fill="#f0f6fc">Ewerton Manoel</text>

  <text x="640" y="166" text-anchor="middle"
        font-family="Segoe UI, Ubuntu, Arial, sans-serif"
        font-size="20"
        fill="#8b949e">Computer Engineering @ CIn-UFPE</text>

  <text x="640" y="208" text-anchor="middle"
        font-family="Consolas, monospace"
        font-size="18"
        fill="#58a6ff">Algorithms • Competitive Programming • Systems Programming • Modern C++</text>
</svg>
